<svg width="193" height="47" viewBox="0 0 193 47" fill="none" xmlns="http://www.w3.org/2000/svg">
<path d="M50.176 19L54.288 7.08H57.104L61.216 19H58.848L58 16.44H53.392L52.528 19H50.176ZM54.016 14.52H57.376L55.392 8.584H56L54.016 14.52ZM61.5666 19V10.296H63.5346V12.232L63.3746 11.944C63.5773 11.2933 63.892 10.84 64.3186 10.584C64.756 10.328 65.2786 10.2 65.8866 10.2H66.3986V12.056H65.6466C65.0493 12.056 64.5693 12.2427 64.2066 12.616C63.844 12.9787 63.6626 13.4907 63.6626 14.152V19H61.5666ZM70.9534 19.096C69.972 19.096 69.2094 18.8293 68.6654 18.296C68.132 17.752 67.8654 16.9893 67.8654 16.008V12.168H66.3614V10.296H66.5214C66.948 10.296 67.2787 10.184 67.5134 9.96C67.748 9.736 67.8654 9.41067 67.8654 8.984V8.312H69.9614V10.296H71.9614V12.168H69.9614V15.896C69.9614 16.184 70.0094 16.4293 70.1054 16.632C70.212 16.8347 70.372 16.9893 70.5854 17.096C70.8094 17.2027 71.092 17.256 71.4334 17.256C71.508 17.256 71.5934 17.2507 71.6894 17.24C71.796 17.2293 71.8974 17.2187 71.9934 17.208V19C71.844 19.0213 71.6734 19.0427 71.4814 19.064C71.2894 19.0853 71.1134 19.096 70.9534 19.096ZM76.7628 19.096C75.7814 19.096 75.0188 18.8293 74.4748 18.296C73.9414 17.752 73.6748 16.9893 73.6748 16.008V12.168H72.1708V10.296H72.3308C72.7574 10.296 73.0881 10.184 73.3228 9.96C73.5574 9.736 73.6748 9.41067 73.6748 8.984V8.312H75.7708V10.296H77.7708V12.168H75.7708V15.896C75.7708 16.184 75.8188 16.4293 75.9148 16.632C76.0214 16.8347 76.1814 16.9893 76.3948 17.096C76.6188 17.2027 76.9014 17.256 77.2428 17.256C77.3174 17.256 77.4028 17.2507 77.4988 17.24C77.6054 17.2293 77.7068 17.2187 77.8028 17.208V19C77.6534 19.0213 77.4828 19.0427 77.2908 19.064C77.0988 19.0853 76.9228 19.096 76.7628 19.096ZM82.5721 19.096C81.5908 19.096 80.8281 18.8293 80.2841 18.296C79.7508 17.752 79.4841 16.9893 79.4841 16.008V12.168H77.9801V10.296H78.1401C78.5668 10.296 78.8975 10.184 79.1321 9.96C79.3668 9.736 79.4841 9.41067 79.4841 8.984V8.312H81.5801V10.296H83.5801V12.168H81.5801V15.896C81.5801 16.184 81.6281 16.4293 81.7241 16.632C81.8308 16.8347 81.9908 16.9893 82.2041 17.096C82.4281 17.2027 82.7108 17.256 83.0521 17.256C83.1268 17.256 83.2121 17.2507 83.3081 17.24C83.4148 17.2293 83.5161 17.2187 83.6121 17.208V19C83.4628 19.0213 83.2921 19.0427 83.1001 19.064C82.9081 19.0853 82.7321 19.096 82.5721 19.096ZM88.4634 19.192C87.5674 19.192 86.7834 18.9893 86.1114 18.584C85.4394 18.1787 84.9167 17.6293 84.5434 16.936C84.17 16.2427 83.9834 15.4747 83.9834 14.632C83.9834 13.7573 84.17 12.984 84.5434 12.312C84.9274 11.6293 85.4447 11.0907 86.0954 10.696C86.7567 10.3013 87.4927 10.104 88.3034 10.104C88.986 10.104 89.5834 10.216 90.0954 10.44C90.618 10.664 91.0607 10.9733 91.4234 11.368C91.786 11.7627 92.0634 12.216 92.2554 12.728C92.4474 13.2293 92.5434 13.7733 92.5434 14.36C92.5434 14.5093 92.5327 14.664 92.5114 14.824C92.5007 14.984 92.474 15.1227 92.4314 15.24H85.7114V13.64H91.2474L90.2554 14.392C90.3514 13.9013 90.3247 13.464 90.1754 13.08C90.0367 12.696 89.802 12.392 89.4714 12.168C89.1514 11.944 88.762 11.832 88.3034 11.832C87.866 11.832 87.4767 11.944 87.1354 12.168C86.794 12.3813 86.5327 12.7013 86.3514 13.128C86.1807 13.544 86.1167 14.0507 86.1594 14.648C86.1167 15.1813 86.186 15.656 86.3674 16.072C86.5594 16.4773 86.8367 16.792 87.1994 17.016C87.5727 17.24 87.9994 17.352 88.4794 17.352C88.9594 17.352 89.3647 17.2507 89.6954 17.048C90.0367 16.8453 90.3034 16.5733 90.4954 16.232L92.1914 17.064C92.0207 17.48 91.754 17.848 91.3914 18.168C91.0287 18.488 90.5967 18.7387 90.0954 18.92C89.6047 19.1013 89.0607 19.192 88.4634 19.192ZM97.5883 19.192C96.7349 19.192 95.9563 18.9947 95.2523 18.6C94.5589 18.2053 94.0043 17.6667 93.5883 16.984C93.1829 16.3013 92.9803 15.5227 92.9803 14.648C92.9803 13.7733 93.1829 12.9947 93.5883 12.312C94.0043 11.6293 94.5589 11.0907 95.2523 10.696C95.9456 10.3013 96.7243 10.104 97.5883 10.104C98.4416 10.104 99.2149 10.3013 99.9083 10.696C100.602 11.0907 101.151 11.6293 101.556 12.312C101.972 12.984 102.18 13.7627 102.18 14.648C102.18 15.5227 101.972 16.3013 101.556 16.984C101.14 17.6667 100.586 18.2053 99.8923 18.6C99.1989 18.9947 98.4309 19.192 97.5883 19.192ZM97.5883 17.272C98.0576 17.272 98.4683 17.16 98.8203 16.936C99.1829 16.712 99.4656 16.4027 99.6683 16.008C99.8816 15.6027 99.9883 15.1493 99.9883 14.648C99.9883 14.136 99.8816 13.688 99.6683 13.304C99.4656 12.9093 99.1829 12.6 98.8203 12.376C98.4683 12.1413 98.0576 12.024 97.5883 12.024C97.1083 12.024 96.6869 12.1413 96.3243 12.376C95.9616 12.6 95.6736 12.9093 95.4603 13.304C95.2576 13.688 95.1563 14.136 95.1563 14.648C95.1563 15.1493 95.2576 15.6027 95.4603 16.008C95.6736 16.4027 95.9616 16.712 96.3243 16.936C96.6869 17.16 97.1083 17.272 97.5883 17.272Z" fill="#2A3342"/>
<path d="M54.746 41.168C54.0833 41.168 53.4767 41.0467 52.926 40.804C52.3753 40.552 51.9087 40.2113 51.526 39.782C51.1433 39.3527 50.868 38.872 50.7 38.34L51.89 37.85C52.142 38.522 52.5153 39.04 53.01 39.404C53.514 39.7587 54.102 39.936 54.774 39.936C55.1847 39.936 55.544 39.8707 55.852 39.74C56.16 39.6093 56.398 39.4273 56.566 39.194C56.7433 38.9513 56.832 38.6713 56.832 38.354C56.832 37.9153 56.706 37.57 56.454 37.318C56.2113 37.0567 55.852 36.8607 55.376 36.73L53.458 36.142C52.702 35.9087 52.1233 35.54 51.722 35.036C51.3207 34.532 51.12 33.9533 51.12 33.3C51.12 32.7307 51.2553 32.2313 51.526 31.802C51.806 31.3633 52.1887 31.0227 52.674 30.78C53.1687 30.528 53.7287 30.402 54.354 30.402C54.9793 30.402 55.544 30.514 56.048 30.738C56.5613 30.962 56.9953 31.2653 57.35 31.648C57.7047 32.0213 57.966 32.4507 58.134 32.936L56.958 33.426C56.734 32.838 56.398 32.3947 55.95 32.096C55.502 31.788 54.9747 31.634 54.368 31.634C53.9947 31.634 53.6633 31.6993 53.374 31.83C53.094 31.9513 52.8747 32.1333 52.716 32.376C52.5667 32.6093 52.492 32.8893 52.492 33.216C52.492 33.5987 52.6133 33.9393 52.856 34.238C53.0987 34.5367 53.4673 34.7653 53.962 34.924L55.712 35.442C56.5333 35.694 57.154 36.0533 57.574 36.52C57.994 36.9867 58.204 37.5653 58.204 38.256C58.204 38.8253 58.0547 39.3293 57.756 39.768C57.4667 40.2067 57.0607 40.552 56.538 40.804C56.0247 41.0467 55.4273 41.168 54.746 41.168ZM62.9428 41.168C62.2148 41.168 61.5568 41 60.9688 40.664C60.3808 40.3187 59.9141 39.8473 59.5688 39.25C59.2234 38.6527 59.0508 37.976 59.0508 37.22C59.0508 36.464 59.2188 35.792 59.5548 35.204C59.9001 34.616 60.3668 34.1493 60.9548 33.804C61.5428 33.4587 62.2054 33.286 62.9428 33.286C63.6708 33.286 64.3288 33.4587 64.9168 33.804C65.5048 34.14 65.9668 34.602 66.3028 35.19C66.6481 35.778 66.8208 36.4547 66.8208 37.22C66.8208 37.9853 66.6434 38.6667 66.2888 39.264C65.9341 39.852 65.4628 40.3187 64.8748 40.664C64.2961 41 63.6521 41.168 62.9428 41.168ZM62.9428 39.908C63.4094 39.908 63.8294 39.7913 64.2028 39.558C64.5854 39.3247 64.8841 39.0027 65.0988 38.592C65.3228 38.1813 65.4348 37.724 65.4348 37.22C65.4348 36.7067 65.3228 36.254 65.0988 35.862C64.8841 35.4607 64.5854 35.1433 64.2028 34.91C63.8294 34.6673 63.4094 34.546 62.9428 34.546C62.4668 34.546 62.0374 34.6673 61.6548 34.91C61.2814 35.1433 60.9828 35.4607 60.7588 35.862C60.5348 36.254 60.4228 36.7067 60.4228 37.22C60.4228 37.724 60.5348 38.1813 60.7588 38.592C60.9828 39.0027 61.2814 39.3247 61.6548 39.558C62.0374 39.7913 62.4668 39.908 62.9428 39.908ZM68.3845 41V34.7H66.9425V33.454H68.3845V32.922C68.3845 32.3807 68.5012 31.9233 68.7345 31.55C68.9772 31.1767 69.2945 30.892 69.6865 30.696C70.0878 30.5 70.5312 30.402 71.0165 30.402C71.1192 30.402 71.2312 30.4113 71.3525 30.43C71.4832 30.4393 71.5905 30.4533 71.6745 30.472V31.634C71.5998 31.6153 71.5112 31.606 71.4085 31.606C71.3058 31.5967 71.2265 31.592 71.1705 31.592C70.7412 31.592 70.3865 31.6947 70.1065 31.9C69.8358 32.1053 69.7005 32.446 69.7005 32.922V33.454H71.4925V34.7H69.7005V41H68.3845ZM75.722 41.084C74.9847 41.084 74.4154 40.874 74.014 40.454C73.622 40.034 73.426 39.4413 73.426 38.676V34.7H72.054V33.454H72.334C72.67 33.454 72.936 33.3513 73.132 33.146C73.328 32.9407 73.426 32.67 73.426 32.334V31.718H74.728V33.454H76.422V34.7H74.728V38.634C74.728 38.886 74.7654 39.1053 74.84 39.292C74.924 39.4787 75.0594 39.628 75.246 39.74C75.4327 39.8427 75.68 39.894 75.988 39.894C76.0534 39.894 76.1327 39.8893 76.226 39.88C76.3287 39.8707 76.422 39.8613 76.506 39.852V41C76.3847 41.028 76.2494 41.0467 76.1 41.056C75.9507 41.0747 75.8247 41.084 75.722 41.084ZM79.2428 41L76.6528 33.454H78.0948L80.1528 39.768L79.6488 39.754L81.6648 33.454H82.8968L84.9128 39.754L84.4088 39.768L86.4808 33.454H87.9088L85.3188 41H84.0728L82.0848 34.7H82.4768L80.4888 41H79.2428ZM90.3118 41.168C89.8171 41.168 89.3785 41.0793 88.9958 40.902C88.6225 40.7153 88.3285 40.4633 88.1138 40.146C87.8991 39.8193 87.7918 39.446 87.7918 39.026C87.7918 38.6247 87.8758 38.2653 88.0438 37.948C88.2211 37.6213 88.4918 37.346 88.8558 37.122C89.2291 36.898 89.6958 36.7393 90.2558 36.646L93.0558 36.184V37.276L90.5498 37.696C90.0645 37.78 89.7098 37.934 89.4858 38.158C89.2711 38.382 89.1638 38.6573 89.1638 38.984C89.1638 39.292 89.2851 39.5487 89.5278 39.754C89.7798 39.9593 90.0925 40.062 90.4658 40.062C90.9418 40.062 91.3525 39.964 91.6978 39.768C92.0525 39.5627 92.3278 39.2873 92.5238 38.942C92.7291 38.5967 92.8318 38.214 92.8318 37.794V35.876C92.8318 35.4653 92.6778 35.134 92.3698 34.882C92.0711 34.6207 91.6745 34.49 91.1798 34.49C90.7505 34.49 90.3678 34.602 90.0318 34.826C89.7051 35.0407 89.4625 35.33 89.3038 35.694L88.1698 35.106C88.3098 34.7607 88.5338 34.4527 88.8418 34.182C89.1498 33.902 89.5091 33.6827 89.9198 33.524C90.3305 33.3653 90.7598 33.286 91.2078 33.286C91.7865 33.286 92.2951 33.398 92.7338 33.622C93.1725 33.8367 93.5131 34.14 93.7558 34.532C94.0078 34.9147 94.1338 35.3627 94.1338 35.876V41H92.8598V39.572L93.0978 39.656C92.9391 39.9547 92.7245 40.216 92.4538 40.44C92.1831 40.664 91.8658 40.8413 91.5018 40.972C91.1378 41.1027 90.7411 41.168 90.3118 41.168ZM95.4525 41V33.454H96.7265V34.84L96.5865 34.644C96.7639 34.2147 97.0345 33.8973 97.3985 33.692C97.7625 33.4773 98.2059 33.37 98.7285 33.37H99.1905V34.602H98.5325C98.0005 34.602 97.5712 34.77 97.2445 35.106C96.9179 35.4327 96.7545 35.8993 96.7545 36.506V41H95.4525ZM103.119 41.168C102.391 41.168 101.742 40.9953 101.173 40.65C100.604 40.3047 100.156 39.8333 99.8291 39.236C99.5024 38.6293 99.3391 37.9527 99.3391 37.206C99.3391 36.45 99.4977 35.778 99.8151 35.19C100.142 34.602 100.58 34.14 101.131 33.804C101.691 33.4587 102.316 33.286 103.007 33.286C103.567 33.286 104.062 33.3887 104.491 33.594C104.93 33.79 105.298 34.0607 105.597 34.406C105.905 34.742 106.138 35.1293 106.297 35.568C106.465 35.9973 106.549 36.4453 106.549 36.912C106.549 37.0147 106.54 37.1313 106.521 37.262C106.512 37.3833 106.498 37.5 106.479 37.612H100.291V36.492H105.723L105.107 36.996C105.191 36.5107 105.144 36.0767 104.967 35.694C104.79 35.3113 104.528 35.008 104.183 34.784C103.838 34.56 103.446 34.448 103.007 34.448C102.568 34.448 102.167 34.56 101.803 34.784C101.439 35.008 101.154 35.33 100.949 35.75C100.753 36.1607 100.674 36.6507 100.711 37.22C100.674 37.7707 100.758 38.256 100.963 38.676C101.178 39.0867 101.476 39.4087 101.859 39.642C102.251 39.866 102.676 39.978 103.133 39.978C103.637 39.978 104.062 39.8613 104.407 39.628C104.752 39.3947 105.032 39.096 105.247 38.732L106.339 39.292C106.19 39.6373 105.956 39.9547 105.639 40.244C105.331 40.524 104.962 40.748 104.533 40.916C104.113 41.084 103.642 41.168 103.119 41.168ZM109.421 41V30.57H112.837C113.891 30.57 114.811 30.7847 115.595 31.214C116.379 31.6433 116.985 32.25 117.415 33.034C117.844 33.8087 118.059 34.7233 118.059 35.778C118.059 36.8233 117.844 37.738 117.415 38.522C116.985 39.306 116.379 39.9173 115.595 40.356C114.811 40.7853 113.891 41 112.837 41H109.421ZM110.793 39.74H112.851C113.625 39.74 114.293 39.5767 114.853 39.25C115.422 38.9233 115.861 38.466 116.169 37.878C116.477 37.2807 116.631 36.5807 116.631 35.778C116.631 34.966 116.472 34.266 116.155 33.678C115.847 33.09 115.408 32.6373 114.839 32.32C114.279 31.9933 113.616 31.83 112.851 31.83H110.793V39.74ZM122.416 41.168C121.688 41.168 121.039 40.9953 120.47 40.65C119.9 40.3047 119.452 39.8333 119.126 39.236C118.799 38.6293 118.636 37.9527 118.636 37.206C118.636 36.45 118.794 35.778 119.112 35.19C119.438 34.602 119.877 34.14 120.428 33.804C120.988 33.4587 121.613 33.286 122.304 33.286C122.864 33.286 123.358 33.3887 123.788 33.594C124.226 33.79 124.595 34.0607 124.894 34.406C125.202 34.742 125.435 35.1293 125.594 35.568C125.762 35.9973 125.846 36.4453 125.846 36.912C125.846 37.0147 125.836 37.1313 125.818 37.262C125.808 37.3833 125.794 37.5 125.776 37.612H119.588V36.492H125.02L124.404 36.996C124.488 36.5107 124.441 36.0767 124.264 35.694C124.086 35.3113 123.825 35.008 123.48 34.784C123.134 34.56 122.742 34.448 122.304 34.448C121.865 34.448 121.464 34.56 121.1 34.784C120.736 35.008 120.451 35.33 120.246 35.75C120.05 36.1607 119.97 36.6507 120.008 37.22C119.97 37.7707 120.054 38.256 120.26 38.676C120.474 39.0867 120.773 39.4087 121.156 39.642C121.548 39.866 121.972 39.978 122.43 39.978C122.934 39.978 123.358 39.8613 123.704 39.628C124.049 39.3947 124.329 39.096 124.544 38.732L125.636 39.292C125.486 39.6373 125.253 39.9547 124.936 40.244C124.628 40.524 124.259 40.748 123.83 40.916C123.41 41.084 122.938 41.168 122.416 41.168ZM128.806 41L125.852 33.454H127.308L129.674 39.838H129.17L131.55 33.454H133.006L130.038 41H128.806ZM136.807 41.168C136.079 41.168 135.43 40.9953 134.861 40.65C134.291 40.3047 133.843 39.8333 133.517 39.236C133.19 38.6293 133.027 37.9527 133.027 37.206C133.027 36.45 133.185 35.778 133.503 35.19C133.829 34.602 134.268 34.14 134.819 33.804C135.379 33.4587 136.004 33.286 136.695 33.286C137.255 33.286 137.749 33.3887 138.179 33.594C138.617 33.79 138.986 34.0607 139.285 34.406C139.593 34.742 139.826 35.1293 139.985 35.568C140.153 35.9973 140.237 36.4453 140.237 36.912C140.237 37.0147 140.227 37.1313 140.209 37.262C140.199 37.3833 140.185 37.5 140.167 37.612H133.979V36.492H139.411L138.795 36.996C138.879 36.5107 138.832 36.0767 138.655 35.694C138.477 35.3113 138.216 35.008 137.871 34.784C137.525 34.56 137.133 34.448 136.695 34.448C136.256 34.448 135.855 34.56 135.491 34.784C135.127 35.008 134.842 35.33 134.637 35.75C134.441 36.1607 134.361 36.6507 134.399 37.22C134.361 37.7707 134.445 38.256 134.651 38.676C134.865 39.0867 135.164 39.4087 135.547 39.642C135.939 39.866 136.363 39.978 136.821 39.978C137.325 39.978 137.749 39.8613 138.095 39.628C138.44 39.3947 138.72 39.096 138.935 38.732L140.027 39.292C139.877 39.6373 139.644 39.9547 139.327 40.244C139.019 40.524 138.65 40.748 138.221 40.916C137.801 41.084 137.329 41.168 136.807 41.168ZM141.234 41V30.402H142.536V41H141.234ZM147.44 41.168C146.712 41.168 146.054 41 145.466 40.664C144.878 40.3187 144.412 39.8473 144.066 39.25C143.721 38.6527 143.548 37.976 143.548 37.22C143.548 36.464 143.716 35.792 144.052 35.204C144.398 34.616 144.864 34.1493 145.452 33.804C146.04 33.4587 146.703 33.286 147.44 33.286C148.168 33.286 148.826 33.4587 149.414 33.804C150.002 34.14 150.464 34.602 150.8 35.19C151.146 35.778 151.318 36.4547 151.318 37.22C151.318 37.9853 151.141 38.6667 150.786 39.264C150.432 39.852 149.96 40.3187 149.372 40.664C148.794 41 148.15 41.168 147.44 41.168ZM147.44 39.908C147.907 39.908 148.327 39.7913 148.7 39.558C149.083 39.3247 149.382 39.0027 149.596 38.592C149.82 38.1813 149.932 37.724 149.932 37.22C149.932 36.7067 149.82 36.254 149.596 35.862C149.382 35.4607 149.083 35.1433 148.7 34.91C148.327 34.6673 147.907 34.546 147.44 34.546C146.964 34.546 146.535 34.6673 146.152 34.91C145.779 35.1433 145.48 35.4607 145.256 35.862C145.032 36.254 144.92 36.7067 144.92 37.22C144.92 37.724 145.032 38.1813 145.256 38.592C145.48 39.0027 145.779 39.3247 146.152 39.558C146.535 39.7913 146.964 39.908 147.44 39.908ZM152.317 43.8V33.454H153.591V35.078L153.423 34.756C153.703 34.308 154.085 33.9533 154.571 33.692C155.056 33.4213 155.611 33.286 156.237 33.286C156.946 33.286 157.581 33.4587 158.141 33.804C158.71 34.1493 159.158 34.6207 159.485 35.218C159.811 35.806 159.975 36.478 159.975 37.234C159.975 37.9713 159.811 38.6387 159.485 39.236C159.158 39.8333 158.71 40.3047 158.141 40.65C157.581 40.9953 156.941 41.168 156.223 41.168C155.616 41.168 155.061 41.0327 154.557 40.762C154.062 40.4913 153.679 40.1087 153.409 39.614L153.619 39.39V43.8H152.317ZM156.125 39.908C156.601 39.908 157.025 39.7913 157.399 39.558C157.772 39.3247 158.061 39.0073 158.267 38.606C158.481 38.1953 158.589 37.738 158.589 37.234C158.589 36.7113 158.481 36.254 158.267 35.862C158.061 35.4607 157.772 35.1433 157.399 34.91C157.025 34.6673 156.601 34.546 156.125 34.546C155.649 34.546 155.219 34.6627 154.837 34.896C154.463 35.1293 154.165 35.4513 153.941 35.862C153.726 36.2633 153.619 36.7207 153.619 37.234C153.619 37.738 153.726 38.1953 153.941 38.606C154.165 39.0073 154.463 39.3247 154.837 39.558C155.219 39.7913 155.649 39.908 156.125 39.908ZM160.982 41V33.454H162.256V34.994L162.074 34.756C162.26 34.28 162.559 33.916 162.97 33.664C163.38 33.412 163.842 33.286 164.356 33.286C164.944 33.286 165.471 33.4493 165.938 33.776C166.414 34.1027 166.74 34.532 166.918 35.064L166.554 35.078C166.75 34.49 167.081 34.0467 167.548 33.748C168.014 33.44 168.532 33.286 169.102 33.286C169.624 33.286 170.096 33.4073 170.516 33.65C170.945 33.8927 171.286 34.2287 171.538 34.658C171.79 35.0873 171.916 35.5727 171.916 36.114V41H170.6V36.534C170.6 36.114 170.525 35.7593 170.376 35.47C170.226 35.1807 170.021 34.9567 169.76 34.798C169.508 34.63 169.209 34.546 168.864 34.546C168.528 34.546 168.224 34.63 167.954 34.798C167.692 34.9567 167.482 35.1853 167.324 35.484C167.174 35.7733 167.1 36.1233 167.1 36.534V41H165.784V36.534C165.784 36.114 165.709 35.7593 165.56 35.47C165.41 35.1807 165.205 34.9567 164.944 34.798C164.692 34.63 164.393 34.546 164.048 34.546C163.712 34.546 163.408 34.63 163.138 34.798C162.876 34.9567 162.666 35.1853 162.508 35.484C162.358 35.7733 162.284 36.1233 162.284 36.534V41H160.982ZM176.537 41.168C175.809 41.168 175.16 40.9953 174.591 40.65C174.022 40.3047 173.574 39.8333 173.247 39.236C172.92 38.6293 172.757 37.9527 172.757 37.206C172.757 36.45 172.916 35.778 173.233 35.19C173.56 34.602 173.998 34.14 174.549 33.804C175.109 33.4587 175.734 33.286 176.425 33.286C176.985 33.286 177.48 33.3887 177.909 33.594C178.348 33.79 178.716 34.0607 179.015 34.406C179.323 34.742 179.556 35.1293 179.715 35.568C179.883 35.9973 179.967 36.4453 179.967 36.912C179.967 37.0147 179.958 37.1313 179.939 37.262C179.93 37.3833 179.916 37.5 179.897 37.612H173.709V36.492H179.141L178.525 36.996C178.609 36.5107 178.562 36.0767 178.385 35.694C178.208 35.3113 177.946 35.008 177.601 34.784C177.256 34.56 176.864 34.448 176.425 34.448C175.986 34.448 175.585 34.56 175.221 34.784C174.857 35.008 174.572 35.33 174.367 35.75C174.171 36.1607 174.092 36.6507 174.129 37.22C174.092 37.7707 174.176 38.256 174.381 38.676C174.596 39.0867 174.894 39.4087 175.277 39.642C175.669 39.866 176.094 39.978 176.551 39.978C177.055 39.978 177.48 39.8613 177.825 39.628C178.17 39.3947 178.45 39.096 178.665 38.732L179.757 39.292C179.608 39.6373 179.374 39.9547 179.057 40.244C178.749 40.524 178.38 40.748 177.951 40.916C177.531 41.084 177.06 41.168 176.537 41.168ZM180.965 41V33.454H182.239V34.924L182.029 34.798C182.215 34.322 182.514 33.9533 182.925 33.692C183.345 33.4213 183.835 33.286 184.395 33.286C184.936 33.286 185.417 33.4073 185.837 33.65C186.266 33.8927 186.602 34.2287 186.845 34.658C187.097 35.0873 187.223 35.5727 187.223 36.114V41H185.907V36.534C185.907 36.114 185.832 35.7593 185.683 35.47C185.533 35.1807 185.319 34.9567 185.039 34.798C184.768 34.63 184.455 34.546 184.101 34.546C183.746 34.546 183.429 34.63 183.149 34.798C182.878 34.9567 182.663 35.1853 182.505 35.484C182.346 35.7733 182.267 36.1233 182.267 36.534V41H180.965ZM191.452 41.084C190.714 41.084 190.145 40.874 189.744 40.454C189.352 40.034 189.156 39.4413 189.156 38.676V34.7H187.784V33.454H188.064C188.4 33.454 188.666 33.3513 188.862 33.146C189.058 32.9407 189.156 32.67 189.156 32.334V31.718H190.458V33.454H192.152V34.7H190.458V38.634C190.458 38.886 190.495 39.1053 190.57 39.292C190.654 39.4787 190.789 39.628 190.976 39.74C191.162 39.8427 191.41 39.894 191.718 39.894C191.783 39.894 191.862 39.8893 191.956 39.88C192.058 39.8707 192.152 39.8613 192.236 39.852V41C192.114 41.028 191.979 41.0467 191.83 41.056C191.68 41.0747 191.554 41.084 191.452 41.084Z" fill="#7A8597"/>
<path d="M0.75 17.1745L0.941203 17.1283C1.37093 17.0243 1.8017 16.9157 2.23377 16.8068C3.37824 16.5183 4.53181 16.2276 5.69928 16.0138L5.7002 16.0136C6.19572 15.9248 6.69623 15.8658 7.19898 15.837C7.36175 15.8275 7.43455 15.7938 7.47331 15.7602C7.51051 15.728 7.55433 15.6628 7.58197 15.5018C7.59535 15.4164 7.6087 15.331 7.62205 15.2455C7.92046 13.3349 8.2247 11.387 9.03045 9.55289C9.06378 9.47697 9.09687 9.39829 9.1307 9.31783C9.29932 8.91683 9.4865 8.47171 9.81511 8.10586C10.0192 7.8787 10.2824 7.72086 10.568 7.78216C10.8501 7.8427 11.0292 8.09096 11.1302 8.37402L11.1322 8.37974L11.1322 8.37976C11.2082 8.61046 11.2223 8.85681 11.1732 9.09458C11.0457 9.80343 10.9217 10.5147 10.7975 11.2266C10.6013 12.3515 10.4048 13.4782 10.194 14.5999L10.194 14.5999C10.1421 14.8754 10.1124 15.072 10.1093 15.2162C10.1062 15.363 10.1326 15.4075 10.1434 15.4205C10.1522 15.4312 10.1865 15.464 10.3265 15.4816C10.4655 15.4991 10.6634 15.4963 10.9479 15.4778L10.9479 15.4778C11.375 15.4501 11.8022 15.3942 12.2379 15.3352C12.2665 15.3313 12.2952 15.3274 12.3239 15.3235C12.7296 15.2685 13.1431 15.2124 13.5587 15.1787L13.5587 15.1787C14.062 15.138 14.5731 15.1378 15.0723 15.1376C15.2526 15.1375 15.4313 15.1374 15.6076 15.1355L15.6077 15.1355C15.8113 15.1333 15.951 15.1274 16.0534 15.1108C16.1534 15.0945 16.1904 15.072 16.208 15.0565C16.2252 15.0413 16.2518 15.008 16.2791 14.9118C16.3071 14.813 16.3286 14.675 16.3526 14.4721L16.3527 14.4712C16.5787 12.6117 17.0788 10.795 17.8369 9.07892M0.75 17.1745L18.0657 9.17981M0.75 17.1745V17.3712V17.4801V17.7626L1.01962 17.7296M0.75 17.1745L1.01962 17.7296M17.8369 9.07892C17.8369 9.07887 17.837 9.07883 17.837 9.07878L18.0657 9.17981M17.8369 9.07892C17.8368 9.07915 17.8367 9.07937 17.8366 9.0796L18.0657 9.17981M17.8369 9.07892C17.9964 8.71439 18.1848 8.31149 18.5391 7.99329L18.5402 7.99228L18.5402 7.99228C18.6837 7.86504 18.8578 7.7636 19.0603 7.77701C19.2638 7.79049 19.4205 7.91481 19.5412 8.05967M18.0657 9.17981C18.2252 8.81509 18.3958 8.458 18.7062 8.17929C18.9516 7.96155 19.1464 7.9757 19.35 8.22066M19.5412 8.05967C19.5409 8.05927 19.5406 8.05888 19.5402 8.05848L19.35 8.22066M19.5412 8.05967C19.5416 8.06007 19.5419 8.06047 19.5422 8.06086L19.35 8.22066M19.5412 8.05967C19.8547 8.42825 19.8822 8.842 19.8093 9.23813L19.8093 9.23834C19.736 9.63466 19.663 10.0311 19.59 10.4277C19.3221 11.8819 19.0541 13.3376 18.7711 14.793L18.771 14.7935C18.7518 14.8913 18.7453 14.9577 18.7471 15.0031C18.7482 15.0303 18.7519 15.0432 18.7537 15.0477M19.35 8.22066C19.5987 8.51243 19.6284 8.84014 19.5635 9.19288C19.4901 9.58957 19.417 9.98626 19.344 10.383C19.0762 11.8371 18.8084 13.2912 18.5257 14.7453M1.01962 17.7296C1.08389 17.7549 1.14781 17.769 1.20699 17.7771C1.20785 17.7795 1.20872 17.7818 1.20959 17.7842C1.226 17.8289 1.24479 17.8801 1.26616 17.9228C1.29225 17.975 1.33241 18.0369 1.40269 18.085C1.46896 18.1303 1.53939 18.1475 1.59469 18.1567C1.64915 18.1659 1.7142 18.1708 1.78177 18.1758L1.78177 18.1758L1.78448 18.176C3.47522 18.2817 5.17096 18.2839 6.86198 18.1826L6.86279 18.1825C7.03005 18.1719 7.13929 18.1672 7.21592 18.1724C7.23224 18.1736 7.2449 18.1751 7.25452 18.1765C7.25521 18.183 7.25584 18.1908 7.25629 18.2001C7.25964 18.2698 7.25134 18.374 7.23159 18.5391L7.23156 18.5391L7.23116 18.543C7.13138 19.5056 7.09345 20.4735 7.1176 21.4409C7.15224 24.9306 7.42944 28.4076 7.70568 31.8724C7.75582 32.5014 7.80594 33.13 7.85456 33.7581L7.85456 33.7582C7.96183 35.142 8.15116 36.5663 8.71751 37.9109L8.78516 38.0715L8.95927 38.0636C9.02552 38.0606 9.09375 38.0467 9.15711 38.0141C9.20211 38.1199 9.23966 38.2258 9.28046 38.341C9.30901 38.4215 9.33916 38.5066 9.37456 38.5992C9.46863 38.8453 9.5892 39.1102 9.79279 39.3718L10.2401 39.9467V39.2183C10.2401 39.079 10.2424 38.9452 10.2447 38.8158C10.249 38.5666 10.253 38.3337 10.2397 38.1093L10.2396 38.109C10.2122 37.6577 10.1795 37.2069 10.1469 36.7579L10.1444 36.7234C10.1109 36.2624 10.0778 35.8032 10.0504 35.344C10.0036 34.5419 9.96062 33.7379 9.91764 32.9333C9.84265 31.5296 9.76755 30.1237 9.67168 28.7218C9.44519 25.2418 9.46608 21.7504 9.73422 18.2734L9.73429 18.2724C9.74769 18.0892 9.79135 17.9915 9.84315 17.9362C9.89163 17.8845 9.98207 17.8332 10.1756 17.8223C11.3606 17.7568 12.5458 17.6816 13.7297 17.6065C14.3191 17.5691 14.9081 17.5317 15.4966 17.4956C15.6615 17.4858 15.7669 17.4855 15.837 17.4949C15.8625 17.4983 15.8779 17.5023 15.8864 17.5052C15.8895 17.5157 15.8942 17.5372 15.8967 17.5763C15.9017 17.6563 15.8955 17.7691 15.8808 17.9374C15.8655 18.1113 15.8499 18.2855 15.8342 18.4599C15.7282 19.6367 15.6212 20.8261 15.6289 22.0271L15.629 22.0271C15.6565 26.2601 15.981 30.4861 16.6001 34.6747L16.6002 34.6751C16.8311 36.2182 17.1027 37.7852 17.8465 39.2355L17.8972 39.3343L18.0045 39.363C18.0879 39.3852 18.1758 39.3834 18.2563 39.3486C18.3534 39.4282 18.4776 39.4777 18.6299 39.4969L18.9873 39.5417L18.9043 39.1912C18.8668 39.0329 18.893 38.8851 18.9286 38.6839C18.9354 38.6455 18.9425 38.6052 18.9496 38.5626C18.9877 38.3337 19.0172 38.0494 18.8599 37.7597C18.9806 34.6775 18.6541 31.6267 18.3294 28.5927C18.3137 28.4459 18.298 28.2991 18.2823 28.1523C17.9129 24.6849 18.0633 21.2049 18.4189 17.73C18.4317 17.6097 18.4636 17.5571 18.4863 17.5349C18.5038 17.5176 18.5445 17.4899 18.6544 17.4937C18.8891 17.5022 19.1233 17.5102 19.3573 17.5182C20.8083 17.5676 22.2475 17.6166 23.6788 17.785L23.6794 17.7851C23.8504 17.8048 23.8931 17.8453 23.905 17.8611C23.9197 17.8805 23.9483 17.9416 23.9274 18.1263C23.9274 18.1265 23.9273 18.1267 23.9273 18.1268L24.1757 18.1551M1.01962 17.7296L24.6286 34.4272M24.1757 18.1551C23.8631 20.7845 23.7895 23.4363 23.9556 26.0787C24.1099 28.3621 24.3989 30.6315 24.6878 32.9009C24.7512 33.3994 24.8147 33.8978 24.8767 34.3964M24.1757 18.1551C24.2219 17.749 24.0954 17.5814 23.708 17.5367M24.1757 18.1551L23.708 17.5367M24.8767 34.3964L24.6286 34.4272M24.8767 34.3964L24.6287 34.4273C24.6287 34.4273 24.6286 34.4272 24.6286 34.4272M24.8767 34.3964C25.0511 35.8023 25.2464 37.2082 25.8401 38.5138L25.8116 38.5755L25.8609 38.6808C25.8745 38.7099 25.8808 38.7253 25.8836 38.7343C25.8875 38.747 25.8767 38.7228 25.8853 38.6816C25.8862 38.6771 25.8874 38.6725 25.8887 38.6678C25.8914 38.6589 25.8948 38.6497 25.8992 38.6405C25.9021 38.6466 25.905 38.6527 25.908 38.6588C25.9305 38.7057 25.9536 38.7525 25.9773 38.7992C26.0664 38.8006 26.1093 38.7807 26.1248 38.7483C26.1496 38.7885 26.1741 38.8335 26.1997 38.8841C26.2139 38.9121 26.2296 38.9442 26.2463 38.9786C26.231 38.9894 26.2147 38.999 26.1975 39.0073C26.1221 39.0436 26.0407 39.0502 25.9733 39.0491L25.8225 39.0467L25.7543 38.9122C25.0298 37.4834 24.8153 35.9328 24.6286 34.4272M18.5257 14.7453L18.7546 15.0497C18.7546 15.0497 18.7545 15.0495 18.7543 15.0491M18.5257 14.7453C18.4431 15.1655 18.5202 15.3212 18.9868 15.343M18.5257 14.7453L18.7543 15.0491M18.7537 15.0477C18.7533 15.0474 18.753 15.0471 18.7527 15.0469M18.7537 15.0477C18.7539 15.0483 18.7541 15.0488 18.7543 15.0491M18.7537 15.0477C18.7574 15.0504 18.7667 15.056 18.7865 15.0627C18.8263 15.0762 18.8923 15.0883 18.9984 15.0933M18.7527 15.0469C18.7521 15.0463 18.7518 15.046 18.7517 15.046C18.7517 15.046 18.7519 15.0463 18.7527 15.0469ZM18.7527 15.0469C18.753 15.0473 18.7533 15.0477 18.7537 15.0482C18.754 15.0486 18.7542 15.0489 18.7543 15.0491M18.9984 15.0933C18.9984 15.0932 18.9984 15.0932 18.9983 15.0932L18.9868 15.343M18.9984 15.0933L18.9868 15.343M18.9984 15.0933C20.6305 15.1685 22.2585 15.2787 23.8845 15.3963M18.9868 15.343C20.6156 15.4181 22.241 15.5281 23.8665 15.6456M23.8665 15.6456L23.8843 15.3963C23.8844 15.3963 23.8844 15.3963 23.8845 15.3963M23.8665 15.6456C24.3232 15.6783 24.518 15.5368 24.5774 15.0675M23.8665 15.6456L23.8845 15.3963M23.8845 15.3963C24.0951 15.4113 24.1777 15.379 24.2154 15.3491C24.2512 15.3206 24.3024 15.2495 24.3294 15.0361M24.5774 15.0675L24.3294 15.0363C24.3294 15.0362 24.3294 15.0362 24.3294 15.0361M24.5774 15.0675C24.8338 13.0327 25.2597 11.0393 26.1709 9.17219L25.9463 9.06254C25.0179 10.9648 24.5874 12.9888 24.3294 15.0361M24.5774 15.0675L24.3294 15.0361M27.398 8.26639C27.5544 8.51377 27.6099 8.81073 27.5532 9.09707M27.398 8.26639L26.4604 15.4116C26.7151 14.2512 26.897 13.0791 27.0788 11.9073C27.2244 10.9682 27.3701 10.0294 27.5532 9.09707M27.398 8.26639L27.6142 8.14086C27.6134 8.13952 27.6127 8.13818 27.6119 8.13684C27.611 8.13549 27.6102 8.13414 27.6093 8.13279L27.398 8.26639ZM27.5532 9.09707L27.7984 9.14564C27.7984 9.14557 27.7985 9.14551 27.7985 9.14544M27.5532 9.09707L27.7985 9.14525C27.7985 9.14531 27.7985 9.14538 27.7985 9.14544M27.7985 9.14544C27.6164 10.0725 27.4716 11.0061 27.3258 11.9457C27.3078 12.062 27.2897 12.1784 27.2716 12.2948C27.1072 13.3503 26.9358 14.4117 26.7046 15.4652L26.7042 15.4671C26.6826 15.5615 26.6873 15.6166 26.695 15.646C26.7016 15.6712 26.7127 15.6874 26.7317 15.703C26.7845 15.7462 26.8934 15.781 27.0834 15.8021C28.5569 15.9543 30.0111 16.2539 31.4236 16.6961L31.4237 16.6961C31.5357 16.7312 31.6496 16.7658 31.7649 16.8008C32.3459 16.9771 32.9598 17.1634 33.5215 17.4788L33.5278 17.4823L33.5278 17.4824C33.7902 17.6399 34.0189 17.847 34.2008 18.0921L34.25 18.1585V18.2411V18.5677V18.7015L34.1386 18.7758C33.5876 19.143 33.0351 19.119 32.4532 19.0082C31.1908 18.7714 29.9211 18.5797 28.6466 18.3872C28.1711 18.3155 27.6949 18.2436 27.2183 18.1692C27.0658 18.1545 26.9144 18.1311 26.7647 18.0991L26.7573 18.0975L26.75 18.0955C26.5728 18.0463 26.5058 18.0783 26.484 18.0946C26.4578 18.1141 26.4106 18.1747 26.3971 18.3457L26.397 18.3467C26.3297 19.1593 26.2745 19.9691 26.2313 20.7759L26.2312 20.7775C26.0222 24.2758 26.2387 27.7642 26.5793 31.2606C26.7609 33.1215 26.8142 34.9936 26.8671 36.8557C26.8873 37.5657 26.9075 38.2742 26.9347 38.9801L26.9351 38.9897H26.9349C26.9349 39.0528 26.9139 39.1015 26.8979 39.1307C26.8831 39.1578 26.8659 39.1799 26.8572 39.191C26.8502 39.1999 26.8442 39.2074 26.8386 39.2142C26.8263 39.2295 26.816 39.2421 26.8013 39.263L26.5704 39.5915L26.3776 39.2393C26.3348 39.1613 26.2925 39.074 26.255 38.9966L27.7985 9.14544ZM9.9901 38.1242C10.0024 38.3302 9.99942 38.537 9.99541 38.7666C10.0491 38.8678 10.1114 38.9671 10.1874 39.0648L9.9901 39.2183H9.7401C9.7401 39.0744 9.74213 38.9449 9.74426 38.8247C9.65182 38.6392 9.58591 38.4536 9.52162 38.2726C9.46739 38.1199 9.4143 37.9705 9.3474 37.8269M9.9901 38.1242L9.17183 38.0061C9.17823 38.0116 9.18473 38.017 9.19131 38.0222L9.25372 37.9442C9.27579 37.9222 9.29406 37.8988 9.30911 37.8748L9.3474 37.8269M9.9901 38.1242C9.96272 37.6743 9.9301 37.2247 9.89748 36.7751C9.86323 36.3031 9.82899 35.8311 9.80081 35.3588C9.75385 34.554 9.71084 33.7488 9.66783 32.9436L9.9901 38.1242ZM9.3474 37.8269C9.34434 37.8245 9.34133 37.822 9.33834 37.8195C9.33618 37.8245 9.33391 37.8294 9.33152 37.8343L9.3474 37.8269ZM1.55026 17.5716C1.51309 17.6006 1.47988 17.6342 1.45145 17.6716C1.44049 17.6489 1.43279 17.624 1.42914 17.5977C1.42625 17.5768 1.42623 17.5576 1.42785 17.5402C1.46069 17.5411 1.49362 17.5423 1.52649 17.545L1.55026 17.5716ZM1.55026 17.5716C1.55465 17.5676 1.55872 17.564 1.56249 17.5606C1.56677 17.5567 1.57066 17.5532 1.57418 17.5501C1.55938 17.5481 1.54456 17.5465 1.52973 17.5453L1.55026 17.5716ZM15.8789 22.0255C15.9064 26.2468 16.23 30.4611 16.8474 34.6381C17.0785 36.1819 17.3459 37.7115 18.069 39.1214C18.075 39.123 18.0808 39.1243 18.0865 39.1253L15.8789 22.0255ZM15.8789 22.0255C15.8713 20.8375 15.9771 19.6611 16.0831 18.4833C16.0988 18.3086 16.1145 18.1339 16.1299 17.9591L15.8789 22.0255ZM23.708 17.5367C22.2655 17.367 20.8148 17.3176 19.3645 17.2682C19.1307 17.2603 18.8969 17.2523 18.6632 17.2439C18.3496 17.233 18.2021 17.4017 18.1702 17.7044L23.708 17.5367ZM9.00342 37.8063C9.04133 37.8702 9.08803 37.9285 9.14209 37.9795L1.48009 17.7925C1.48053 17.7928 1.48098 17.793 1.48143 17.7933C1.53013 17.9025 1.57597 17.91 1.80007 17.9265C3.48065 18.0315 5.16618 18.0337 6.84703 17.933C7.50183 17.8916 7.55796 17.9156 7.47982 18.5688C7.38108 19.5214 7.34359 20.4792 7.36757 21.4365C7.40203 24.9174 7.67847 28.3851 7.95475 31.8507C8.00493 32.4801 8.0551 33.1095 8.10382 33.7388C8.21057 35.1161 8.39765 36.5074 8.94791 37.8139C8.96873 37.8129 8.98713 37.8103 9.00342 37.8063ZM1.60163 17.5542C1.59667 17.5915 1.63453 17.5842 1.65835 17.5743C1.65972 17.5738 1.66105 17.5732 1.66232 17.5726C1.66907 17.5696 1.67419 17.5665 1.67603 17.5646C1.67636 17.5643 1.67658 17.564 1.6767 17.5638C1.6771 17.5629 1.67603 17.5626 1.67305 17.5632C1.67239 17.5633 1.67164 17.5635 1.67079 17.5637C1.66823 17.5644 1.66478 17.5655 1.66031 17.5672C1.64083 17.5618 1.62126 17.5576 1.60163 17.5542ZM18.403 39.2324C18.407 39.257 18.4119 39.2817 18.4178 39.3064L18.661 39.2488L18.6922 39.0007C18.6704 38.998 18.6522 38.9945 18.6371 38.9906C18.6409 38.8682 18.6626 38.748 18.6841 38.6292C18.7334 38.3559 18.7814 38.0901 18.6071 37.8237C18.7353 34.7353 18.408 31.6767 18.0802 28.6137L18.403 39.2324ZM15.8954 17.5089C15.8953 17.509 15.8949 17.5087 15.8941 17.5082L15.8954 17.5089Z" fill="#009FA8" stroke="#009FA8" stroke-width="0.5"/>
<path d="M18.0586 39.1246C18.0982 39.0789 18.1378 39.0342 18.1763 38.9885C18.4416 39.0527 18.4053 39.2966 18.4735 39.4784C18.4966 39.6515 18.5483 39.8246 18.4856 39.9999H18.3755C18.3887 39.6689 18.0751 39.449 18.0586 39.1246Z" fill="#009FA8"/>
<path d="M25.9756 38.8001C26.0108 38.725 26.0471 38.651 26.0856 38.5759C26.2188 38.7174 26.2243 38.8905 26.2221 39.0919C26.035 39.0614 26.013 38.9275 25.9756 38.8001Z" fill="#009FA8"/>
<path d="M1.10254 17.4943L1.68691 17.4649C1.68691 17.6554 1.54715 17.6554 1.4382 17.6826L1.10254 17.4943Z" fill="#009FA8"/>
</svg>
