<svg width="180" height="80" viewBox="0 0 180 80" fill="none" xmlns="http://www.w3.org/2000/svg">
<g clip-path="url(#clip0_0_68)">
<path d="M94.9665 38.7648C94.144 39.2047 93.2202 39.4192 92.2887 39.3864C91.1049 39.3864 90.1716 39.0579 89.4888 38.4008C88.8059 37.7438 88.4645 36.8387 88.4645 35.6856C88.4451 35.1605 88.5346 34.6371 88.7275 34.1486C88.9205 33.6602 89.2125 33.2172 89.5851 32.8479C89.983 32.4747 90.4513 32.1853 90.9625 31.9966C91.4738 31.808 92.0175 31.724 92.5616 31.7496C93.2632 31.7359 93.9618 31.8449 94.6262 32.0717V33.6306C93.9822 33.2826 93.2572 33.1136 92.5263 33.1411C92.2146 33.13 91.9041 33.1842 91.6144 33.3001C91.3248 33.416 91.0623 33.5911 90.8438 33.8142C90.6236 34.0557 90.4535 34.3386 90.3432 34.6466C90.233 34.9546 90.1848 35.2815 90.2016 35.6083C90.1609 36.2494 90.3705 36.8813 90.786 37.3701C90.9891 37.58 91.2345 37.7439 91.5058 37.8511C91.7771 37.9583 92.0681 38.0063 92.3593 37.9918C92.6827 38.0056 93.0051 37.9473 93.3033 37.8211V36.3813H91.8295V35.0511H94.9601L94.9665 38.7648Z" fill="white"/>
<path d="M102.872 39.2576H101.064L100.553 37.6149H97.9366L97.4196 39.2576H95.6215L98.2994 31.8752H100.264L102.872 39.2576ZM100.162 36.3394L99.3718 33.8561C99.3081 33.6398 99.2672 33.4174 99.2498 33.1926H99.2081C99.1905 33.4116 99.1474 33.6278 99.0796 33.8368L98.2801 36.3394H100.162Z" fill="white"/>
<path d="M109.727 38.7648C108.904 39.2047 107.981 39.4192 107.049 39.3864C105.865 39.3864 104.932 39.0579 104.249 38.4008C103.566 37.7438 103.225 36.8387 103.225 35.6856C103.205 35.1605 103.295 34.6371 103.488 34.1486C103.681 33.6602 103.973 33.2172 104.345 32.8479C104.743 32.4747 105.212 32.1853 105.723 31.9966C106.234 31.808 106.778 31.724 107.322 31.7496C108.024 31.7359 108.722 31.8449 109.387 32.0717V33.6306C108.745 33.2843 108.024 33.1153 107.296 33.1411C106.985 33.13 106.674 33.1842 106.384 33.3001C106.095 33.416 105.832 33.5911 105.614 33.8142C105.394 34.0557 105.223 34.3386 105.113 34.6466C105.003 34.9546 104.955 35.2815 104.972 35.6083C104.931 36.2494 105.141 36.8813 105.556 37.3701C105.759 37.58 106.005 37.7439 106.276 37.8511C106.547 37.9583 106.838 38.0063 107.129 37.9918C107.453 38.0056 107.775 37.9473 108.073 37.8211V36.3813H106.6V35.0511H109.73L109.727 38.7648Z" fill="white"/>
<path d="M117.16 36.0624C117.16 38.2806 116.13 39.3897 114.071 39.3897C112.072 39.3897 111.072 38.3064 111.072 36.1397V31.8752H112.735V36.1591C112.735 37.353 113.201 37.9499 114.132 37.9499C115.063 37.9499 115.52 37.3734 115.503 36.2203V31.8752H117.16V36.0624Z" fill="white"/>
<path d="M125.004 39.2576H123.196L122.673 37.6149H120.056L119.539 39.2576H117.741L120.419 31.8752H122.387L125.004 39.2576ZM122.294 36.3394L121.504 33.8561C121.441 33.6398 121.4 33.4174 121.382 33.1926H121.341C121.323 33.4116 121.28 33.6278 121.212 33.8368L120.413 36.3394H122.294Z" fill="white"/>
<path d="M93.101 47.9187C92.5963 48.1443 92.0479 48.2543 91.4956 48.2408C91.0957 48.2467 90.699 48.17 90.33 48.0153C89.99 47.8671 89.6856 47.6474 89.4374 47.3711C89.1839 47.091 88.9895 46.7623 88.8659 46.4049C88.7356 46.0257 88.6705 45.6271 88.6732 45.226C88.6687 44.7875 88.7404 44.3515 88.8851 43.9376C89.0183 43.5559 89.2257 43.2045 89.4952 42.9037C89.7641 42.6082 90.0924 42.3732 90.4585 42.2144C90.8579 42.0425 91.2889 41.9569 91.7235 41.9632C92.1945 41.9559 92.6628 42.0367 93.1042 42.2015V42.8039C92.6725 42.5882 92.1962 42.4778 91.7139 42.4818C91.3557 42.4749 91.0001 42.5441 90.6704 42.6847C90.3758 42.8141 90.1136 43.0078 89.903 43.2516C89.6887 43.5027 89.5261 43.7939 89.4246 44.1083C89.312 44.4567 89.2567 44.8212 89.2608 45.1874C89.2584 45.5227 89.3083 45.8563 89.4085 46.1762C89.4999 46.4727 89.6483 46.7484 89.8452 46.9879C90.0416 47.2223 90.2872 47.4104 90.5644 47.5386C90.8792 47.6799 91.2214 47.7492 91.5662 47.7416C92.1018 47.7536 92.6315 47.6271 93.1042 47.3744L93.101 47.9187Z" fill="white"/>
<path d="M94.8252 48.1571V42.0695H95.3871V47.632H97.821V48.1571H94.8252Z" fill="white"/>
<path d="M99.8374 48.1571H99.2691V42.0695H99.831L99.8374 48.1571Z" fill="white"/>
<path d="M105.993 48.1571L102.631 43.2677L102.506 43.0776C102.467 43.0173 102.434 42.9537 102.406 42.8876H102.384C102.384 42.9391 102.384 43.01 102.384 43.1002C102.384 43.1904 102.384 43.3031 102.384 43.4384V48.1571H101.838V42.0695H102.48L105.787 46.9009L105.925 47.1135L106.038 47.2971H106.06C106.049 47.2047 106.041 47.0974 106.034 46.975C106.028 46.8526 106.028 46.7237 106.034 46.5885V42.0791H106.6V48.1571H105.993Z" fill="white"/>
<path d="M109.139 48.1571H108.581V42.0695H109.143L109.139 48.1571Z" fill="white"/>
<path d="M115.217 47.9187C114.713 48.1443 114.164 48.2543 113.612 48.2408C113.212 48.2467 112.815 48.17 112.446 48.0153C112.106 47.8671 111.802 47.6474 111.554 47.3711C111.3 47.091 111.106 46.7623 110.982 46.4049C110.846 46.0159 110.779 45.606 110.783 45.1938C110.779 44.7552 110.85 44.3193 110.995 43.9054C111.128 43.5237 111.336 43.1723 111.605 42.8715C111.874 42.576 112.202 42.341 112.569 42.1822C112.968 42.0103 113.399 41.9247 113.834 41.931C114.305 41.9236 114.773 42.0045 115.214 42.1693V42.7717C114.783 42.556 114.306 42.4456 113.824 42.4496C113.466 42.4427 113.11 42.5119 112.78 42.6525C112.486 42.7819 112.224 42.9755 112.013 43.2194C111.799 43.4705 111.636 43.7617 111.535 44.0761C111.422 44.4245 111.367 44.7889 111.371 45.1551C111.368 45.4905 111.418 45.8241 111.519 46.144C111.61 46.4405 111.758 46.7162 111.955 46.9556C112.152 47.1901 112.397 47.3782 112.674 47.5064C112.989 47.6477 113.331 47.717 113.676 47.7093C114.212 47.7214 114.742 47.5949 115.214 47.3422L115.217 47.9187Z" fill="white"/>
<path d="M76.26 44.9361C76.2273 45.8274 75.9757 46.6968 75.5276 47.4672C75.0795 48.2375 74.4487 48.8849 73.6913 49.352C72.8698 49.8662 71.9267 50.1519 70.9588 50.1798H70.6378C69.9496 50.1678 69.2648 50.0803 68.5956 49.9189C69.1327 49.872 69.6627 49.7639 70.1754 49.5968C71.1387 49.2747 71.2542 48.7078 71.2542 48.7078C70.4982 48.2135 69.9442 47.4632 69.6932 46.5937C69.4421 45.7241 69.5107 44.793 69.8864 43.9698C70.1638 43.2461 70.6702 42.6337 71.3279 42.2264C71.9856 41.8192 72.7583 41.6396 73.5275 41.7152C74.3155 41.7792 75.0459 42.1545 75.5582 42.7584C76.0706 43.3623 76.323 44.1456 76.26 44.9361Z" fill="white"/>
<path d="M81.0024 51.5294C78.0502 54.427 74.0744 56.0343 69.9442 56C68.8655 56.0081 67.7891 55.9001 66.7333 55.6779C64.3381 55.1841 62.0882 54.1446 60.1573 52.6395C58.2264 51.1345 56.6663 49.2043 55.5975 46.9981C54.5287 44.7919 53.9798 42.3688 53.9932 39.9159C54.0067 37.463 54.5821 35.0461 55.675 32.8518C56.768 30.6575 58.3492 28.7447 60.2965 27.2611C62.2437 25.7774 64.505 24.7628 66.9054 24.2954C69.3059 23.8281 71.7814 23.9206 74.1405 24.5658C76.4997 25.211 78.6794 26.3917 80.5112 28.0165C78.3258 26.8279 75.8573 26.2632 73.3743 26.3838C70.8912 26.5043 68.4886 27.3056 66.4279 28.7003C64.3671 30.0951 62.727 32.03 61.686 34.2945C60.645 36.5591 60.2429 39.0667 60.5235 41.5445C60.5243 41.553 60.5243 41.5617 60.5235 41.5702C60.7236 44.1387 61.8706 46.5403 63.7407 48.3061C65.6109 50.0719 68.0699 51.0753 70.6378 51.1203H70.9942C72.6546 51.0734 74.2314 50.379 75.3897 49.1846C76.548 47.9902 77.1966 46.3899 77.1976 44.7235C77.2233 42.5397 75.4284 40.8842 73.2546 40.7682C72.7088 40.7392 71.5496 40.8713 70.8689 41.4607L71.1001 40.9873C71.5561 40.0854 73.2065 37.5795 77.0402 37.6214C80.7648 37.66 83.4427 40.5395 83.7638 44.0922C83.812 44.6366 84.0239 48.521 81.0024 51.5294Z" fill="white"/>
<path d="M80.0039 28.8089C79.2685 28.4102 78.4951 28.0864 77.6952 27.8426H77.6728C76.4957 27.4683 75.2664 27.2856 74.0316 27.3015C70.6763 27.3083 67.4605 28.6493 65.0891 31.0305C62.7177 33.4118 61.3842 36.639 61.3808 40.0049C61.8343 38.88 62.4641 37.835 63.2463 36.9095C64.5853 35.4633 65.6898 35.1702 65.6898 35.1702C65.6898 35.1702 67.0994 37.9338 69.4915 37.805C73.6849 37.5795 77.0595 34.9512 78.5301 32.3745C79.1447 31.2411 79.6387 30.046 80.0039 28.8089Z" fill="white"/>
</g>
<defs>
<clipPath id="clip0_0_68">
<rect width="77" height="32" fill="white" transform="translate(51 24)"/>
</clipPath>
</defs>
</svg>
